<?xml version="1.0" standalone="no"?>
<!DOCTYPE svg PUBLIC "-//W3C//DTD SVG 20010904//EN"
 "http://www.w3.org/TR/2001/REC-SVG-20010904/DTD/svg10.dtd">
<svg version="1.0" xmlns="http://www.w3.org/2000/svg"
 width="500.000000pt" height="500.000000pt" viewBox="0 0 500.000000 500.000000"
 preserveAspectRatio="xMidYMid meet">

<g transform="translate(0.000000,500.000000) scale(0.100000,-0.100000)"
fill="#000000" stroke="none">
<path d="M2370 4529 c-52 -26 -103 -58 -113 -71 -19 -22 -19 -62 -2 -130 6
-24 3 -29 -43 -52 -37 -19 -51 -32 -55 -53 -5 -25 -17 -32 -122 -72 -64 -24
-120 -51 -125 -60 -8 -14 -49 -16 -377 -16 l-368 0 2 -95 c2 -52 12 -210 23
-350 11 -140 27 -345 35 -455 9 -110 27 -321 40 -470 13 -148 29 -342 35 -430
6 -88 15 -221 21 -295 31 -392 46 -626 42 -632 -2 -5 3 -8 11 -8 9 0 16 4 16
9 0 5 9 11 20 13 12 2 21 6 22 11 1 4 -5 94 -12 200 l-13 192 47 79 c157 265
404 463 699 561 309 102 656 83 940 -53 249 -119 424 -272 555 -488 45 -76 52
-94 52 -140 0 -90 -9 -90 -51 -2 -22 44 -42 78 -45 75 -13 -13 25 -146 54
-185 30 -42 30 -42 24 -148 l-5 -106 24 4 c29 4 32 23 48 283 7 99 20 299 31
445 11 146 24 337 30 425 5 88 14 216 20 285 12 149 12 157 50 705 16 237 32
463 35 503 l5 72 -406 0 -405 0 -22 23 c-32 33 -101 117 -106 129 -2 6 21 9
58 7 33 -1 64 0 67 4 10 10 -44 84 -85 116 -35 28 -113 71 -128 71 -4 0 2 -7
13 -15 18 -14 17 -15 -8 -4 -15 7 -25 15 -23 20 6 9 -65 35 -118 44 -50 8 -59
32 -22 60 17 14 25 27 20 35 -11 18 -134 6 -191 -19 -26 -12 -48 -21 -51 -21
-2 0 -8 11 -13 25 -5 14 -15 24 -22 24 -7 -1 -56 -23 -108 -50z m590 -139 c8
-5 11 -10 5 -10 -5 0 -17 5 -25 10 -8 5 -10 10 -5 10 6 0 17 -5 25 -10z
m-1011 -413 c6 -18 26 -47 45 -65 33 -31 34 -31 40 -9 6 27 73 92 104 102 17
5 29 -1 53 -25 28 -27 31 -36 26 -72 -10 -75 -84 -124 -151 -98 -29 10 -29 10
-21 -22 4 -18 10 -51 14 -73 9 -61 40 -60 100 3 54 56 134 92 209 92 107 1
191 44 207 107 3 14 8 23 11 20 12 -12 -35 -95 -65 -116 -19 -14 -61 -28 -101
-35 -51 -8 -80 -20 -114 -45 -59 -45 -128 -133 -166 -212 -45 -96 -57 -221
-12 -133 11 22 28 47 38 55 16 13 17 12 11 -11 -23 -83 -28 -164 -17 -257 7
-54 15 -104 19 -111 5 -8 18 4 40 38 37 57 73 85 97 76 14 -5 16 -16 11 -55
l-6 -50 37 5 c80 11 140 28 196 56 32 16 60 28 61 26 6 -6 -36 -68 -46 -68 -5
0 -9 -5 -9 -11 0 -16 105 -2 160 22 55 24 84 50 122 109 l29 45 -7 -45 -7 -45
29 27 c38 35 86 116 129 214 36 81 48 75 19 -10 -9 -26 -13 -50 -10 -53 12
-12 85 70 106 120 30 70 38 189 16 253 l-16 48 29 -28 28 -27 6 43 c6 45 -8
173 -24 215 -5 13 -9 26 -9 29 0 3 51 3 113 2 l112 -3 3 -577 c1 -384 -1 -578
-8 -578 -5 0 -10 16 -10 35 0 30 -3 35 -24 35 -25 0 -25 0 -39 -109 -2 -14 -8
-26 -15 -29 -8 -2 -12 -27 -12 -69 0 -47 -3 -64 -12 -61 -8 3 -14 29 -16 71
l-3 67 -42 0 c-34 0 -48 -6 -79 -37 -35 -35 -38 -41 -38 -96 l0 -58 -42 3
c-40 3 -43 5 -46 34 -2 23 -9 34 -25 38 -47 12 -56 8 -59 -31 -5 -58 -28 -54
-28 5 0 41 -3 51 -20 55 -15 4 -20 14 -20 36 0 29 -3 31 -35 31 -32 0 -35 -3
-35 -29 0 -16 -6 -31 -15 -35 -8 -3 -15 -15 -15 -26 0 -13 -7 -20 -20 -20 -17
0 -20 7 -20 49 0 32 -5 53 -15 61 -11 9 -14 22 -10 42 5 20 2 30 -9 34 -10 4
-16 18 -16 38 0 18 -4 36 -9 42 -5 5 -11 20 -13 33 -1 14 -8 26 -15 28 -7 3
-14 -19 -19 -64 -4 -37 -13 -72 -20 -78 -13 -11 -24 -71 -27 -149 -1 -29 -7
-51 -14 -53 -10 -4 -13 12 -13 56 l0 61 -30 0 -30 0 0 -70 c0 -54 -3 -70 -14
-70 -9 0 -16 12 -18 27 -4 38 -46 58 -82 41 -26 -11 -42 -45 -33 -70 6 -18
-11 -48 -28 -48 -7 0 -15 10 -17 23 -2 14 -11 23 -25 25 -19 3 -23 10 -23 43
l0 39 -50 0 c-47 0 -50 -2 -50 -25 0 -18 -5 -25 -20 -25 -18 0 -20 7 -20 80 0
77 -1 80 -25 86 -29 7 -57 -11 -53 -35 2 -10 -5 -17 -19 -19 -16 -2 -23 -11
-25 -35 -2 -20 -8 -32 -18 -32 -11 0 -16 13 -18 48 -2 26 -7 47 -13 47 -5 0
-9 13 -9 29 0 20 -6 30 -19 34 -12 3 -21 15 -23 33 -2 21 -8 29 -23 29 -15 0
-21 -8 -23 -32 -2 -21 -9 -33 -18 -33 -9 0 -14 -11 -14 -35 0 -19 -4 -35 -10
-35 -5 0 -10 -26 -12 -57 -2 -34 -8 -58 -15 -61 -10 -3 -13 14 -13 62 0 59 -2
66 -20 66 -20 0 -20 7 -20 610 l0 610 119 0 119 0 11 -33z"/>
<path d="M2380 2385 c-47 -8 -107 -21 -135 -28 -48 -13 -50 -15 -49 -49 2 -63
13 -90 33 -83 60 19 158 28 326 30 137 2 207 7 251 19 33 9 94 20 135 24 65 7
71 9 52 20 -12 7 -75 26 -139 42 -146 38 -339 48 -474 25z"/>
<path d="M2075 2296 c-279 -125 -472 -308 -605 -574 -22 -44 -40 -83 -40 -88
0 -5 38 -23 83 -41 l82 -32 35 34 c69 66 217 168 307 211 l92 44 11 58 c18 84
63 194 103 250 34 48 35 50 25 103 -5 30 -13 57 -16 60 -4 4 -38 -7 -77 -25z"/>
<path d="M2880 2259 c-71 -13 -131 -31 -128 -38 2 -3 20 -41 41 -84 21 -43 50
-121 64 -172 l26 -93 81 -31 c99 -37 234 -116 319 -187 l63 -52 61 29 c34 16
88 34 120 41 32 6 59 12 61 13 6 5 -51 201 -69 237 -43 85 -242 258 -371 324
-40 20 -61 24 -135 23 -48 -1 -108 -5 -133 -10z"/>
<path d="M2735 1782 c-153 -80 -284 -167 -294 -195 -5 -13 -12 -48 -16 -79
l-7 -55 309 -6 c279 -6 450 -16 572 -33 l43 -6 -6 79 -7 78 -60 56 c-33 31
-95 77 -138 102 -91 54 -233 117 -264 117 -12 0 -71 -26 -132 -58z"/>
<path d="M1933 1769 c-76 -39 -196 -123 -286 -201 -36 -31 -38 -37 -44 -106
l-6 -74 44 6 c142 20 321 36 520 47 l226 12 7 56 c3 31 9 66 12 77 5 19 -7 29
-83 72 -48 28 -126 74 -173 101 -47 28 -96 51 -110 51 -14 0 -62 -19 -107 -41z"/>
<path d="M2223 1363 c-21 -4 -34 -33 -14 -33 4 0 11 -44 15 -97 9 -123 17
-133 101 -133 88 0 92 7 97 153 l3 117 -37 0 c-38 0 -49 -15 -28 -36 7 -7 10
-47 8 -100 l-3 -88 -32 -7 c-17 -3 -36 -3 -42 0 -17 11 -27 181 -11 191 7 4
10 15 7 24 -6 16 -20 18 -64 9z"/>
<path d="M2542 1347 c-50 -53 -12 -127 65 -127 48 0 68 -19 59 -55 -5 -21 -12
-25 -41 -25 -24 0 -39 6 -47 20 -15 24 -46 26 -55 3 -4 -10 3 -24 21 -39 21
-19 38 -23 79 -23 66 1 97 26 97 79 0 48 -24 70 -78 70 -43 0 -72 19 -72 49 0
42 69 58 92 21 14 -22 58 -28 58 -7 0 7 -7 23 -16 35 -13 19 -24 22 -78 22
-52 0 -66 -4 -84 -23z"/>
<path d="M1985 1350 c-56 -4 -70 -8 -73 -22 -2 -10 1 -18 6 -18 15 0 26 -191
11 -200 -21 -14 1 -30 42 -30 27 0 39 4 39 14 0 8 -4 18 -10 21 -5 3 -10 23
-10 45 0 32 4 39 26 44 36 9 50 -6 58 -64 6 -47 8 -50 36 -50 23 0 30 5 30 19
0 11 -4 23 -10 26 -5 3 -10 21 -10 40 0 19 -4 37 -10 40 -5 3 -7 25 -3 50 10
74 -17 93 -122 85z m63 -39 c8 -5 12 -21 10 -37 -3 -26 -7 -29 -40 -32 -37 -3
-38 -3 -38 32 0 41 33 60 68 37z"/>
<path d="M2874 1338 c5 -22 -46 -180 -66 -203 -19 -22 -7 -35 33 -35 39 0 41
2 35 24 -10 39 2 56 39 56 41 0 57 -18 49 -59 -6 -31 -6 -31 36 -31 36 0 41 3
37 18 -42 131 -57 204 -47 217 20 24 1 35 -62 35 -58 0 -60 -1 -54 -22z m66
-67 c0 -5 3 -23 6 -40 6 -28 4 -31 -20 -31 -29 0 -33 14 -14 55 11 24 28 34
28 16z"/>
<path d="M3264 1304 c8 -46 -9 -176 -26 -204 -16 -24 -13 -27 45 -35 43 -7 47
-6 47 14 0 13 -6 21 -16 21 -13 0 -15 7 -10 31 3 17 6 35 6 40 0 12 37 11 45
-1 14 -22 35 -10 35 20 0 30 -1 31 -34 25 -40 -8 -45 -1 -39 43 5 30 8 32 44
32 21 0 41 -4 44 -10 12 -19 35 -10 35 14 0 22 -5 24 -72 31 -40 3 -81 9 -92
12 -16 4 -17 1 -12 -33z"/>
<path d="M1290 1320 c0 -8 8 -45 17 -83 14 -55 15 -71 5 -87 -15 -24 0 -27 19
-4 11 13 10 28 -5 87 -20 77 -35 114 -36 87z"/>
<path d="M1710 1323 c-60 -6 -80 -13 -80 -27 0 -8 5 -16 11 -18 14 -5 32 -153
24 -197 l-6 -33 78 6 c104 10 112 12 106 37 -4 16 -11 19 -27 14 -11 -3 -38
-9 -58 -12 l-38 -6 0 42 c0 42 0 42 33 39 29 -3 32 0 35 26 3 28 3 28 -36 21
-38 -6 -39 -5 -46 25 -9 45 0 52 58 48 46 -3 51 -1 54 20 4 23 -10 25 -108 15z"/>
<path d="M1488 1293 c-30 -5 -37 -27 -13 -40 15 -9 46 -157 38 -180 -12 -32
-73 -21 -73 13 0 19 -39 18 -46 -1 -8 -21 22 -64 49 -70 37 -8 89 9 109 35 17
24 17 30 3 108 -8 46 -12 96 -8 113 6 31 5 32 -59 22z"/>
<path d="M3550 1282 c-17 -14 -25 -38 -37 -109 -13 -83 -13 -94 2 -116 15 -23
63 -37 125 -37 21 0 60 36 60 55 0 20 -46 20 -54 0 -7 -19 -69 -20 -84 -2 -13
15 7 160 24 177 18 18 78 -2 82 -27 3 -20 35 -37 46 -25 12 12 5 50 -12 65
-10 9 -34 19 -53 23 -19 3 -44 7 -55 10 -12 2 -32 -4 -44 -14z"/>
<path d="M1086 1092 c-3 -5 15 -44 41 -87 44 -75 59 -131 62 -247 1 -10 6 -18
12 -18 8 0 10 19 5 63 -13 117 -19 138 -54 195 -19 31 -40 67 -47 80 -7 13
-16 19 -19 14z"/>
<path d="M2235 1044 c-22 -2 -108 -8 -191 -14 -205 -15 -606 -69 -621 -84 -3
-3 8 -8 23 -12 16 -3 76 -19 134 -35 206 -56 208 -57 127 -70 -38 -6 -36 -7
26 -8 37 0 67 2 67 7 -1 4 -5 26 -9 50 -7 35 -6 42 8 42 20 0 190 -82 299
-144 144 -82 444 -236 459 -236 8 0 103 48 211 107 303 164 523 276 530 269 3
-4 5 -24 4 -46 l-3 -40 38 0 c23 0 33 3 25 8 -14 10 51 32 217 73 63 16 116
31 118 33 3 3 -80 17 -322 56 -46 8 -56 5 -117 -26 -38 -19 -68 -32 -68 -30 0
2 19 18 41 35 40 29 41 30 18 35 -100 22 -759 47 -759 29 0 -6 7 -13 15 -16 8
-4 85 -53 172 -110 87 -57 163 -107 169 -110 10 -6 90 22 197 67 81 35 28 3
-175 -105 -117 -62 -232 -123 -255 -136 -23 -13 -48 -23 -54 -23 -13 0 -426
215 -441 229 -7 6 182 155 230 180 52 27 18 35 -113 25z"/>
</g>
</svg>
